0
SECTION
2
HEADER
9
$INSUNITS
70
4
9
$ACADVER
1
AC1014
9
$HANDSEED
5
FFFF
0
ENDSEC
0
SECTION
2
TABLES
0
TABLE
2
VPORT
5
8
100
AcDbSymbolTable
0
ENDTAB
0
TABLE
2
LTYPE
5
5
100
AcDbSymbolTable
0
LTYPE
5
14
100
AcDbSymbolTableRecord
100
AcDbLinetypeTableRecord
2
BYBLOCK
70
0
0
LTYPE
5
15
100
AcDbSymbolTableRecord
100
AcDbLinetypeTableRecord
2
BYLAYER
70
0
0
ENDTAB
0
TABLE
2
LAYER
5
2
100
AcDbSymbolTable
70
2
0
LAYER
5
50
100
AcDbSymbolTableRecord
100
AcDbLayerTableRecord
2
0
70
0
6
CONTINUOUS
0
ENDTAB
0
TABLE
2
STYLE
5
3
100
AcDbSymbolTable
70
1
0
STYLE
5
11
100
AcDbSymbolTableRecord
100
AcDbTextStyleTableRecord
2
STANDARD
70
0
0
ENDTAB
0
TABLE
2
VIEW
5
6
100
AcDbSymbolTable
70
0
0
ENDTAB
0
TABLE
2
UCS
5
7
100
AcDbSymbolTable
70
0
0
ENDTAB
0
TABLE
2
APPID
5
9
100
AcDbSymbolTable
70
2
0
APPID
5
12
100
AcDbSymbolTableRecord
100
AcDbRegAppTableRecord
2
ACAD
70
0
0
ENDTAB
0
TABLE
2
DIMSTYLE
5
A
100
AcDbSymbolTable
70
1
0
ENDTAB
0
TABLE
2
BLOCK_RECORD
5
1
100
AcDbSymbolTable
70
1
0
BLOCK_RECORD
5
1F
100
AcDbSymbolTableRecord
100
AcDbBlockTableRecord
2
*MODEL_SPACE
0
BLOCK_RECORD
5
1B
100
AcDbSymbolTableRecord
100
AcDbBlockTableRecord
2
*PAPER_SPACE
0
ENDTAB
0
ENDSEC
0
SECTION
2
BLOCKS
0
BLOCK
5
20
100
AcDbEntity
100
AcDbBlockBegin
2
*MODEL_SPACE
0
ENDBLK
5
21
100
AcDbEntity
100
AcDbBlockEnd
0
BLOCK
5
1C
100
AcDbEntity
100
AcDbBlockBegin
2
*PAPER_SPACE
0
ENDBLK
5
1D
100
AcDbEntity
100
AcDbBlockEnd
0
ENDSEC
0
SECTION
2
ENTITIES
0
LWPOLYLINE
5
100
100
AcDbEntity
8
OUTER_PROFILES
100
AcDbPolyline
90
26
70
1
43
0.0
10
32.121091521059938
20
100.44904942006767
42
0.38625478158031845
10
-4.9547134879434296
20
63.373244411064348
42
-0.97618786052236872
10
-4.9999999999999289
20
61.494335932124173
10
-16.018795165194749
20
61.494335932124159
42
0.37447550069566038
10
-20.971567423884391
20
57.179935635708006
10
-25.374335932132439
20
25.374335932124154
42
0.41421356237309509
10
-20.374335932132439
20
20.374335932124154
10
-4.9999999999999289
20
20.374335932124161
10
-5
20
4.9999999999999982
42
0.41421356237309492
10
0
20
0
10
404.0800000000001
20
0
42
0.41421356237309509
10
409.0800000000001
20
5
10
409.0800000000001
20
20.374335932124161
10
424.4543359321242
20
20.374335932124144
42
0.41421356237309509
10
429.4543359321242
20
25.374335932124144
10
425.05156742387618
20
57.179935635707949
42
0.37447550069566282
10
420.09879516518652
20
61.494335932124145
10
409.0800000000001
20
61.494335932124152
42
-0.97618786052234841
10
409.03471348794358
20
63.373244411064327
42
0.38625478158031845
10
371.9589084789402
20
100.44904942006764
42
-0.97618786052238682
10
370.0800000000001
20
100.49433593212413
10
370.0800000000001
20
110.86867186424767
42
0.41421356237309709
10
365.0800000000001
20
115.8686718642477
10
39.000000000000043
20
115.8686718642477
42
0.4142135623730942
10
34.000000000000057
20
110.8686718642477
10
34.000000000000021
20
100.49433593212414
42
-0.97618786052243056
0
CIRCLE
5
101
100
AcDbEntity
8
INTERIOR_PROFILES
100
AcDbCircle
10
-367.1400000000001
20
58.554335932124161
30
0
40
27.939999999999969
210
0
220
0
230
-1
0
CIRCLE
5
102
100
AcDbEntity
8
INTERIOR_PROFILES
100
AcDbCircle
10
-284.59000000000009
20
58.554335932124161
30
0
40
27.940000000000005
210
0
220
0
230
-1
0
CIRCLE
5
103
100
AcDbEntity
8
INTERIOR_PROFILES
100
AcDbCircle
10
-36.940000000000097
20
58.554335932124161
30
0
40
27.940000000000005
210
0
220
0
230
-1
0
CIRCLE
5
104
100
AcDbEntity
8
INTERIOR_PROFILES
100
AcDbCircle
10
-119.49000000000005
20
58.554335932124161
30
0
40
27.940000000000005
210
0
220
0
230
-1
0
CIRCLE
5
105
100
AcDbEntity
8
INTERIOR_PROFILES
100
AcDbCircle
10
-202.04000000000008
20
58.554335932124161
30
0
40
27.940000000000005
210
0
220
0
230
-1
0
CIRCLE
5
106
100
AcDbEntity
8
INTERIOR_PROFILES
100
AcDbCircle
10
-391.90193611171571
20
8.2399999999999984
30
0
40
3.0000000000000426
210
0
220
0
230
-1
0
CIRCLE
5
107
100
AcDbEntity
8
INTERIOR_PROFILES
100
AcDbCircle
10
-11.901936111715727
20
8.2399999999999984
30
0
40
3.0000000000000071
210
0
220
0
230
-1
0
CIRCLE
5
108
100
AcDbEntity
8
INTERIOR_PROFILES
100
AcDbCircle
10
-201.90193611171571
20
8.2399999999999984
30
0
40
3.0000000000000071
210
0
220
0
230
-1
0
LINE
5
109
100
AcDbEntity
8
BEND
100
AcDbLine
10
411.14716796606217
20
20.374335932124144
30
-4.7184478546569153e-14
11
411.14716796606217
21
61.494335932124152
31
-2.3314683517128291e-14
0
LINE
5
110
100
AcDbEntity
8
BEND
100
AcDbLine
10
370.0800000000001
20
102.56150389818593
30
-4.9606335730484125e-14
11
34.000000000000057
21
102.56150389818593
31
-6.3220693338028566e-14
0
LINE
5
111
100
AcDbEntity
8
BEND
100
AcDbLine
10
-5
20
18.307167966062075
30
-3.7349670749075945e-14
11
409.0800000000001
21
18.307167966062075
31
-3.219646771412954e-14
0
LINE
5
112
100
AcDbEntity
8
BEND
100
AcDbLine
10
-7.0671679660661368
20
61.494335932124159
30
4.7685544599345798e-14
11
-7.0671679660661368
21
20.374335932124161
31
5.2544012937339175e-14
0
LINE
5
113
100
AcDbEntity
8
BEND_EXTENT
100
AcDbLine
10
-9.1343359321324158
20
20.374335932124161
30
0
11
-9.1343359321324158
21
61.494335932124159
31
0
0
LINE
5
114
100
AcDbEntity
8
BEND_EXTENT
100
AcDbLine
10
34.000000000000057
20
104.62867186424768
30
-8.8817841970012523e-14
11
370.0800000000001
21
104.62867186424768
31
-7.1054273576010019e-14
0
LINE
5
115
100
AcDbEntity
8
BEND_EXTENT
100
AcDbLine
10
370.0800000000001
20
100.49433593212413
30
-3.5527136788005009e-14
11
34.000000000000057
21
100.49433593212413
31
-3.5527136788005009e-14
0
LINE
5
116
100
AcDbEntity
8
BEND_EXTENT
100
AcDbLine
10
413.21433593212419
20
61.494335932124145
30
-1.4210854715202004e-13
11
413.21433593212419
21
20.374335932124144
31
-1.4210854715202004e-13
0
LINE
5
117
100
AcDbEntity
8
BEND_EXTENT
100
AcDbLine
10
409.0800000000001
20
20.374335932124161
30
-3.5527136788005009e-14
11
409.0800000000001
21
61.494335932124152
31
-3.5527136788005009e-14
0
LINE
5
118
100
AcDbEntity
8
BEND_EXTENT
100
AcDbLine
10
-4.9999999999999289
20
20.374335932124161
30
-3.5527136788005009e-14
11
409.0800000000001
21
20.374335932124161
31
-3.5527136788005009e-14
0
LINE
5
119
100
AcDbEntity
8
BEND_EXTENT
100
AcDbLine
10
-4.9999999999999289
20
61.494335932124173
30
-3.5527136788005009e-14
11
-4.9999999999999289
21
20.374335932124161
31
-3.5527136788005009e-14
0
LINE
5
120
100
AcDbEntity
8
BEND_EXTENT
100
AcDbLine
10
409.0800000000001
20
16.240000000000006
30
-2.6645352591003757e-14
11
-5
21
16.240000000000006
31
-4.4408920985006262e-14
0
ENDSEC
0
SECTION
2
OBJECTS
0
DICTIONARY
5
C
100
AcDbDictionary
3
ACAD_GROUP
350
D
3
ACAD_MLINESTYLE
350
17
0
DICTIONARY
5
D
100
AcDbDictionary
0
DICTIONARY
5
1A
330
C
100
AcDbDictionary
0
DICTIONARY
5
17
100
AcDbDictionary
0
ENDSEC
0
EOF
